<svg width="851" height="618" viewBox="0 0 851 618" fill="none" xmlns="http://www.w3.org/2000/svg">
<g filter="url(#filter0_f_82_3235)">
<rect x="90" y="90" width="610" height="350" rx="30" fill="url(#paint0_linear_82_3235)"/>
</g>
<rect x="81" y="81" width="610" height="350" rx="30" fill="url(#paint1_linear_82_3235)"/>
<mask id="mask0_82_3235" style="mask-type:alpha" maskUnits="userSpaceOnUse" x="81" y="81" width="610" height="351">
<rect x="81" y="81" width="609.616" height="350.118" rx="30" fill="#ED713C"/>
</mask>
<g mask="url(#mask0_82_3235)">
<ellipse opacity="0.1" cx="128.415" cy="486.299" rx="310.614" ry="215.018" fill="black"/>
<ellipse opacity="0.08" cx="643.201" cy="25.8184" rx="310.614" ry="215.018" fill="black"/>
</g>
<path d="M589.772 368.764C589.772 367.149 590.042 365.889 590.584 364.984C591.134 364.069 592.077 363.612 593.412 363.612C594.746 363.612 595.684 364.069 596.226 364.984C596.776 365.889 597.052 367.149 597.052 368.764C597.052 370.397 596.776 371.676 596.226 372.6C595.684 373.515 594.746 373.972 593.412 373.972C592.077 373.972 591.134 373.515 590.584 372.6C590.042 371.676 589.772 370.397 589.772 368.764ZM595.484 368.764C595.484 368.008 595.432 367.369 595.33 366.846C595.236 366.323 595.04 365.899 594.742 365.572C594.443 365.236 594 365.068 593.412 365.068C592.824 365.068 592.38 365.236 592.082 365.572C591.783 365.899 591.582 366.323 591.48 366.846C591.386 367.369 591.34 368.008 591.34 368.764C591.34 369.548 591.386 370.206 591.48 370.738C591.573 371.27 591.769 371.699 592.068 372.026C592.376 372.353 592.824 372.516 593.412 372.516C594 372.516 594.443 372.353 594.742 372.026C595.05 371.699 595.25 371.27 595.344 370.738C595.437 370.206 595.484 369.548 595.484 368.764ZM601.228 371.228C601.322 371.695 601.522 372.049 601.83 372.292C602.138 372.535 602.554 372.656 603.076 372.656C603.739 372.656 604.224 372.395 604.532 371.872C604.84 371.349 604.994 370.458 604.994 369.198C604.77 369.515 604.453 369.763 604.042 369.94C603.641 370.108 603.202 370.192 602.726 370.192C602.12 370.192 601.569 370.071 601.074 369.828C600.58 369.576 600.188 369.207 599.898 368.722C599.618 368.227 599.478 367.63 599.478 366.93C599.478 365.903 599.777 365.087 600.374 364.48C600.981 363.864 601.812 363.556 602.866 363.556C604.136 363.556 605.036 363.981 605.568 364.83C606.11 365.67 606.38 366.963 606.38 368.708C606.38 369.912 606.278 370.897 606.072 371.662C605.876 372.427 605.531 373.006 605.036 373.398C604.542 373.79 603.856 373.986 602.978 373.986C601.98 373.986 601.21 373.725 600.668 373.202C600.127 372.679 599.824 372.021 599.758 371.228H601.228ZM603.006 368.848C603.566 368.848 604.005 368.675 604.322 368.33C604.649 367.975 604.812 367.509 604.812 366.93C604.812 366.286 604.64 365.787 604.294 365.432C603.958 365.068 603.496 364.886 602.908 364.886C602.32 364.886 601.854 365.073 601.508 365.446C601.172 365.81 601.004 366.291 601.004 366.888C601.004 367.457 601.168 367.929 601.494 368.302C601.83 368.666 602.334 368.848 603.006 368.848ZM614.017 360.784L610.209 376.45H608.641L612.435 360.784H614.017ZM617.201 371.83C618.097 371.055 618.801 370.421 619.315 369.926C619.837 369.422 620.271 368.899 620.617 368.358C620.962 367.817 621.135 367.275 621.135 366.734C621.135 366.174 620.999 365.735 620.729 365.418C620.467 365.101 620.052 364.942 619.483 364.942C618.932 364.942 618.503 365.119 618.195 365.474C617.896 365.819 617.737 366.286 617.719 366.874H616.179C616.207 365.81 616.524 364.998 617.131 364.438C617.747 363.869 618.526 363.584 619.469 363.584C620.486 363.584 621.279 363.864 621.849 364.424C622.427 364.984 622.717 365.731 622.717 366.664C622.717 367.336 622.544 367.985 622.199 368.61C621.863 369.226 621.457 369.781 620.981 370.276C620.514 370.761 619.917 371.326 619.189 371.97L618.559 372.53H622.997V373.86H616.193V372.698L617.201 371.83ZM631.479 365.166H626.789V367.952C626.985 367.691 627.274 367.471 627.657 367.294C628.049 367.117 628.464 367.028 628.903 367.028C629.687 367.028 630.321 367.196 630.807 367.532C631.301 367.868 631.651 368.293 631.857 368.806C632.071 369.319 632.179 369.861 632.179 370.43C632.179 371.121 632.043 371.737 631.773 372.278C631.511 372.81 631.115 373.23 630.583 373.538C630.06 373.846 629.416 374 628.651 374C627.633 374 626.817 373.748 626.201 373.244C625.585 372.74 625.216 372.073 625.095 371.242H626.649C626.751 371.681 626.98 372.031 627.335 372.292C627.689 372.544 628.133 372.67 628.665 372.67C629.327 372.67 629.822 372.469 630.149 372.068C630.485 371.667 630.653 371.135 630.653 370.472C630.653 369.8 630.485 369.287 630.149 368.932C629.813 368.568 629.318 368.386 628.665 368.386C628.207 368.386 627.82 368.503 627.503 368.736C627.195 368.96 626.971 369.268 626.831 369.66H625.319V363.766H631.479V365.166Z" fill="white"/>
<path opacity="0.9" d="M146.42 365.166H141.73V367.952C141.926 367.691 142.215 367.471 142.598 367.294C142.99 367.117 143.405 367.028 143.844 367.028C144.628 367.028 145.263 367.196 145.748 367.532C146.243 367.868 146.593 368.293 146.798 368.806C147.013 369.319 147.12 369.861 147.12 370.43C147.12 371.121 146.985 371.737 146.714 372.278C146.453 372.81 146.056 373.23 145.524 373.538C145.001 373.846 144.357 374 143.592 374C142.575 374 141.758 373.748 141.142 373.244C140.526 372.74 140.157 372.073 140.036 371.242H141.59C141.693 371.681 141.921 372.031 142.276 372.292C142.631 372.544 143.074 372.67 143.606 372.67C144.269 372.67 144.763 372.469 145.09 372.068C145.426 371.667 145.594 371.135 145.594 370.472C145.594 369.8 145.426 369.287 145.09 368.932C144.754 368.568 144.259 368.386 143.606 368.386C143.149 368.386 142.761 368.503 142.444 368.736C142.136 368.96 141.912 369.268 141.772 369.66H140.26V363.766H146.42V365.166ZM150.163 371.83C151.059 371.055 151.764 370.421 152.277 369.926C152.8 369.422 153.234 368.899 153.579 368.358C153.925 367.817 154.097 367.275 154.097 366.734C154.097 366.174 153.962 365.735 153.691 365.418C153.43 365.101 153.015 364.942 152.445 364.942C151.895 364.942 151.465 365.119 151.157 365.474C150.859 365.819 150.7 366.286 150.681 366.874H149.141C149.169 365.81 149.487 364.998 150.093 364.438C150.709 363.869 151.489 363.584 152.431 363.584C153.449 363.584 154.242 363.864 154.811 364.424C155.39 364.984 155.679 365.731 155.679 366.664C155.679 367.336 155.507 367.985 155.161 368.61C154.825 369.226 154.419 369.781 153.943 370.276C153.477 370.761 152.879 371.326 152.151 371.97L151.521 372.53H155.959V373.86H149.155V372.698L150.163 371.83ZM159.583 368.666C158.613 368.181 158.127 367.415 158.127 366.37C158.127 365.866 158.253 365.404 158.505 364.984C158.757 364.564 159.135 364.233 159.639 363.99C160.143 363.738 160.759 363.612 161.487 363.612C162.206 363.612 162.817 363.738 163.321 363.99C163.835 364.233 164.217 364.564 164.469 364.984C164.721 365.404 164.847 365.866 164.847 366.37C164.847 366.893 164.712 367.355 164.441 367.756C164.18 368.148 163.83 368.451 163.391 368.666C163.923 368.862 164.343 369.184 164.651 369.632C164.959 370.071 165.113 370.589 165.113 371.186C165.113 371.793 164.959 372.329 164.651 372.796C164.343 373.263 163.914 373.622 163.363 373.874C162.813 374.126 162.187 374.252 161.487 374.252C160.787 374.252 160.162 374.126 159.611 373.874C159.07 373.622 158.645 373.263 158.337 372.796C158.029 372.329 157.875 371.793 157.875 371.186C157.875 370.579 158.029 370.057 158.337 369.618C158.645 369.179 159.061 368.862 159.583 368.666ZM163.321 366.566C163.321 366.043 163.158 365.642 162.831 365.362C162.505 365.082 162.057 364.942 161.487 364.942C160.927 364.942 160.484 365.082 160.157 365.362C159.831 365.642 159.667 366.048 159.667 366.58C159.667 367.047 159.835 367.429 160.171 367.728C160.517 368.017 160.955 368.162 161.487 368.162C162.019 368.162 162.458 368.013 162.803 367.714C163.149 367.415 163.321 367.033 163.321 366.566ZM161.487 369.366C160.871 369.366 160.367 369.52 159.975 369.828C159.593 370.127 159.401 370.561 159.401 371.13C159.401 371.662 159.588 372.096 159.961 372.432C160.335 372.759 160.843 372.922 161.487 372.922C162.122 372.922 162.621 372.754 162.985 372.418C163.359 372.082 163.545 371.653 163.545 371.13C163.545 370.57 163.354 370.136 162.971 369.828C162.598 369.52 162.103 369.366 161.487 369.366ZM168.171 371.83C169.067 371.055 169.772 370.421 170.285 369.926C170.808 369.422 171.242 368.899 171.587 368.358C171.933 367.817 172.105 367.275 172.105 366.734C172.105 366.174 171.97 365.735 171.699 365.418C171.438 365.101 171.023 364.942 170.453 364.942C169.903 364.942 169.473 365.119 169.165 365.474C168.867 365.819 168.708 366.286 168.689 366.874H167.149C167.177 365.81 167.495 364.998 168.101 364.438C168.717 363.869 169.497 363.584 170.439 363.584C171.457 363.584 172.25 363.864 172.819 364.424C173.398 364.984 173.687 365.731 173.687 366.664C173.687 367.336 173.515 367.985 173.169 368.61C172.833 369.226 172.427 369.781 171.951 370.276C171.485 370.761 170.887 371.326 170.159 371.97L169.529 372.53H173.967V373.86H167.163V372.698L168.171 371.83ZM179.978 366.314C180.034 365.446 180.365 364.769 180.972 364.284C181.588 363.799 182.372 363.556 183.324 363.556C183.977 363.556 184.542 363.673 185.018 363.906C185.494 364.139 185.853 364.457 186.096 364.858C186.339 365.259 186.46 365.712 186.46 366.216C186.46 366.795 186.306 367.289 185.998 367.7C185.69 368.111 185.321 368.386 184.892 368.526V368.582C185.443 368.75 185.872 369.058 186.18 369.506C186.488 369.945 186.642 370.509 186.642 371.2C186.642 371.751 186.516 372.241 186.264 372.67C186.012 373.099 185.639 373.44 185.144 373.692C184.649 373.935 184.057 374.056 183.366 374.056C182.358 374.056 181.527 373.799 180.874 373.286C180.23 372.763 179.885 372.017 179.838 371.046H181.378C181.415 371.541 181.607 371.947 181.952 372.264C182.297 372.572 182.764 372.726 183.352 372.726C183.921 372.726 184.36 372.572 184.668 372.264C184.976 371.947 185.13 371.541 185.13 371.046C185.13 370.393 184.92 369.931 184.5 369.66C184.089 369.38 183.455 369.24 182.596 369.24H182.232V367.924H182.61C183.366 367.915 183.94 367.789 184.332 367.546C184.733 367.303 184.934 366.921 184.934 366.398C184.934 365.95 184.789 365.595 184.5 365.334C184.211 365.063 183.8 364.928 183.268 364.928C182.745 364.928 182.339 365.063 182.05 365.334C181.761 365.595 181.588 365.922 181.532 366.314H179.978ZM188.623 371.872V370.668L193.327 363.92H195.259V370.486H196.561V371.872H195.259V374H193.691V371.872H188.623ZM193.761 365.544L190.457 370.486H193.761V365.544ZM204.963 365.166H200.273V367.952C200.469 367.691 200.758 367.471 201.141 367.294C201.533 367.117 201.948 367.028 202.387 367.028C203.171 367.028 203.806 367.196 204.291 367.532C204.786 367.868 205.136 368.293 205.341 368.806C205.556 369.319 205.663 369.861 205.663 370.43C205.663 371.121 205.528 371.737 205.257 372.278C204.996 372.81 204.599 373.23 204.067 373.538C203.544 373.846 202.9 374 202.135 374C201.118 374 200.301 373.748 199.685 373.244C199.069 372.74 198.7 372.073 198.579 371.242H200.133C200.236 371.681 200.464 372.031 200.819 372.292C201.174 372.544 201.617 372.67 202.149 372.67C202.812 372.67 203.306 372.469 203.633 372.068C203.969 371.667 204.137 371.135 204.137 370.472C204.137 369.8 203.969 369.287 203.633 368.932C203.297 368.568 202.802 368.386 202.149 368.386C201.692 368.386 201.304 368.503 200.987 368.736C200.679 368.96 200.455 369.268 200.315 369.66H198.803V363.766H204.963V365.166ZM213.312 366.16C213.21 365.731 213.023 365.409 212.752 365.194C212.482 364.979 212.104 364.872 211.618 364.872C210.881 364.872 210.33 365.157 209.966 365.726C209.602 366.286 209.411 367.219 209.392 368.526C209.635 368.115 209.99 367.798 210.456 367.574C210.923 367.35 211.427 367.238 211.968 367.238C212.584 367.238 213.126 367.373 213.592 367.644C214.068 367.905 214.437 368.288 214.698 368.792C214.969 369.296 215.104 369.898 215.104 370.598C215.104 371.251 214.974 371.835 214.712 372.348C214.46 372.861 214.082 373.267 213.578 373.566C213.074 373.855 212.468 374 211.758 374C210.797 374 210.041 373.79 209.49 373.37C208.949 372.941 208.566 372.339 208.342 371.564C208.128 370.789 208.02 369.823 208.02 368.666C208.02 365.25 209.224 363.542 211.632 363.542C212.566 363.542 213.298 363.794 213.83 364.298C214.372 364.802 214.689 365.423 214.782 366.16H213.312ZM211.618 368.582C211.049 368.582 210.564 368.755 210.162 369.1C209.77 369.436 209.574 369.926 209.574 370.57C209.574 371.214 209.756 371.727 210.12 372.11C210.494 372.483 211.012 372.67 211.674 372.67C212.262 372.67 212.724 372.488 213.06 372.124C213.406 371.76 213.578 371.275 213.578 370.668C213.578 370.033 213.41 369.529 213.074 369.156C212.748 368.773 212.262 368.582 211.618 368.582ZM227.912 365.026L224.02 374H222.41L226.344 365.194H221.164V363.836H227.912V365.026ZM231.5 368.666C230.529 368.181 230.044 367.415 230.044 366.37C230.044 365.866 230.17 365.404 230.422 364.984C230.674 364.564 231.052 364.233 231.556 363.99C232.06 363.738 232.676 363.612 233.404 363.612C234.122 363.612 234.734 363.738 235.238 363.99C235.751 364.233 236.133 364.564 236.386 364.984C236.638 365.404 236.764 365.866 236.764 366.37C236.764 366.893 236.628 367.355 236.358 367.756C236.096 368.148 235.746 368.451 235.308 368.666C235.84 368.862 236.26 369.184 236.568 369.632C236.876 370.071 237.03 370.589 237.03 371.186C237.03 371.793 236.876 372.329 236.568 372.796C236.26 373.263 235.83 373.622 235.28 373.874C234.729 374.126 234.104 374.252 233.404 374.252C232.704 374.252 232.078 374.126 231.528 373.874C230.986 373.622 230.562 373.263 230.254 372.796C229.946 372.329 229.792 371.793 229.792 371.186C229.792 370.579 229.946 370.057 230.254 369.618C230.562 369.179 230.977 368.862 231.5 368.666ZM235.238 366.566C235.238 366.043 235.074 365.642 234.748 365.362C234.421 365.082 233.973 364.942 233.404 364.942C232.844 364.942 232.4 365.082 232.074 365.362C231.747 365.642 231.584 366.048 231.584 366.58C231.584 367.047 231.752 367.429 232.088 367.728C232.433 368.017 232.872 368.162 233.404 368.162C233.936 368.162 234.374 368.013 234.72 367.714C235.065 367.415 235.238 367.033 235.238 366.566ZM233.404 369.366C232.788 369.366 232.284 369.52 231.892 369.828C231.509 370.127 231.318 370.561 231.318 371.13C231.318 371.662 231.504 372.096 231.878 372.432C232.251 372.759 232.76 372.922 233.404 372.922C234.038 372.922 234.538 372.754 234.902 372.418C235.275 372.082 235.462 371.653 235.462 371.13C235.462 370.57 235.27 370.136 234.888 369.828C234.514 369.52 234.02 369.366 233.404 369.366ZM241.193 371.228C241.287 371.695 241.487 372.049 241.795 372.292C242.103 372.535 242.519 372.656 243.041 372.656C243.704 372.656 244.189 372.395 244.497 371.872C244.805 371.349 244.959 370.458 244.959 369.198C244.735 369.515 244.418 369.763 244.007 369.94C243.606 370.108 243.167 370.192 242.691 370.192C242.085 370.192 241.534 370.071 241.039 369.828C240.545 369.576 240.153 369.207 239.863 368.722C239.583 368.227 239.443 367.63 239.443 366.93C239.443 365.903 239.742 365.087 240.339 364.48C240.946 363.864 241.777 363.556 242.831 363.556C244.101 363.556 245.001 363.981 245.533 364.83C246.075 365.67 246.345 366.963 246.345 368.708C246.345 369.912 246.243 370.897 246.037 371.662C245.841 372.427 245.496 373.006 245.001 373.398C244.507 373.79 243.821 373.986 242.943 373.986C241.945 373.986 241.175 373.725 240.633 373.202C240.092 372.679 239.789 372.021 239.723 371.228H241.193ZM242.971 368.848C243.531 368.848 243.97 368.675 244.287 368.33C244.614 367.975 244.777 367.509 244.777 366.93C244.777 366.286 244.605 365.787 244.259 365.432C243.923 365.068 243.461 364.886 242.873 364.886C242.285 364.886 241.819 365.073 241.473 365.446C241.137 365.81 240.969 366.291 240.969 366.888C240.969 367.457 241.133 367.929 241.459 368.302C241.795 368.666 242.299 368.848 242.971 368.848ZM248.592 368.764C248.592 367.149 248.863 365.889 249.404 364.984C249.955 364.069 250.897 363.612 252.232 363.612C253.567 363.612 254.505 364.069 255.046 364.984C255.597 365.889 255.872 367.149 255.872 368.764C255.872 370.397 255.597 371.676 255.046 372.6C254.505 373.515 253.567 373.972 252.232 373.972C250.897 373.972 249.955 373.515 249.404 372.6C248.863 371.676 248.592 370.397 248.592 368.764ZM254.304 368.764C254.304 368.008 254.253 367.369 254.15 366.846C254.057 366.323 253.861 365.899 253.562 365.572C253.263 365.236 252.82 365.068 252.232 365.068C251.644 365.068 251.201 365.236 250.902 365.572C250.603 365.899 250.403 366.323 250.3 366.846C250.207 367.369 250.16 368.008 250.16 368.764C250.16 369.548 250.207 370.206 250.3 370.738C250.393 371.27 250.589 371.699 250.888 372.026C251.196 372.353 251.644 372.516 252.232 372.516C252.82 372.516 253.263 372.353 253.562 372.026C253.87 371.699 254.071 371.27 254.164 370.738C254.257 370.206 254.304 369.548 254.304 368.764ZM261.987 365.25V363.794H264.899V374H263.289V365.25H261.987ZM268.474 371.83C269.37 371.055 270.075 370.421 270.588 369.926C271.111 369.422 271.545 368.899 271.89 368.358C272.235 367.817 272.408 367.275 272.408 366.734C272.408 366.174 272.273 365.735 272.002 365.418C271.741 365.101 271.325 364.942 270.756 364.942C270.205 364.942 269.776 365.119 269.468 365.474C269.169 365.819 269.011 366.286 268.992 366.874H267.452C267.48 365.81 267.797 364.998 268.404 364.438C269.02 363.869 269.799 363.584 270.742 363.584C271.759 363.584 272.553 363.864 273.122 364.424C273.701 364.984 273.99 365.731 273.99 366.664C273.99 367.336 273.817 367.985 273.472 368.61C273.136 369.226 272.73 369.781 272.254 370.276C271.787 370.761 271.19 371.326 270.462 371.97L269.832 372.53H274.27V373.86H267.466V372.698L268.474 371.83ZM277.894 368.666C276.923 368.181 276.438 367.415 276.438 366.37C276.438 365.866 276.564 365.404 276.816 364.984C277.068 364.564 277.446 364.233 277.95 363.99C278.454 363.738 279.07 363.612 279.798 363.612C280.517 363.612 281.128 363.738 281.632 363.99C282.145 364.233 282.528 364.564 282.78 364.984C283.032 365.404 283.158 365.866 283.158 366.37C283.158 366.893 283.023 367.355 282.752 367.756C282.491 368.148 282.141 368.451 281.702 368.666C282.234 368.862 282.654 369.184 282.962 369.632C283.27 370.071 283.424 370.589 283.424 371.186C283.424 371.793 283.27 372.329 282.962 372.796C282.654 373.263 282.225 373.622 281.674 373.874C281.123 374.126 280.498 374.252 279.798 374.252C279.098 374.252 278.473 374.126 277.922 373.874C277.381 373.622 276.956 373.263 276.648 372.796C276.34 372.329 276.186 371.793 276.186 371.186C276.186 370.579 276.34 370.057 276.648 369.618C276.956 369.179 277.371 368.862 277.894 368.666ZM281.632 366.566C281.632 366.043 281.469 365.642 281.142 365.362C280.815 365.082 280.367 364.942 279.798 364.942C279.238 364.942 278.795 365.082 278.468 365.362C278.141 365.642 277.978 366.048 277.978 366.58C277.978 367.047 278.146 367.429 278.482 367.728C278.827 368.017 279.266 368.162 279.798 368.162C280.33 368.162 280.769 368.013 281.114 367.714C281.459 367.415 281.632 367.033 281.632 366.566ZM279.798 369.366C279.182 369.366 278.678 369.52 278.286 369.828C277.903 370.127 277.712 370.561 277.712 371.13C277.712 371.662 277.899 372.096 278.272 372.432C278.645 372.759 279.154 372.922 279.798 372.922C280.433 372.922 280.932 372.754 281.296 372.418C281.669 372.082 281.856 371.653 281.856 371.13C281.856 370.57 281.665 370.136 281.282 369.828C280.909 369.52 280.414 369.366 279.798 369.366ZM287.588 371.228C287.681 371.695 287.882 372.049 288.19 372.292C288.498 372.535 288.913 372.656 289.436 372.656C290.098 372.656 290.584 372.395 290.892 371.872C291.2 371.349 291.354 370.458 291.354 369.198C291.13 369.515 290.812 369.763 290.402 369.94C290 370.108 289.562 370.192 289.086 370.192C288.479 370.192 287.928 370.071 287.434 369.828C286.939 369.576 286.547 369.207 286.258 368.722C285.978 368.227 285.838 367.63 285.838 366.93C285.838 365.903 286.136 365.087 286.734 364.48C287.34 363.864 288.171 363.556 289.226 363.556C290.495 363.556 291.396 363.981 291.928 364.83C292.469 365.67 292.74 366.963 292.74 368.708C292.74 369.912 292.637 370.897 292.432 371.662C292.236 372.427 291.89 373.006 291.396 373.398C290.901 373.79 290.215 373.986 289.338 373.986C288.339 373.986 287.569 373.725 287.028 373.202C286.486 372.679 286.183 372.021 286.118 371.228H287.588ZM289.366 368.848C289.926 368.848 290.364 368.675 290.682 368.33C291.008 367.975 291.172 367.509 291.172 366.93C291.172 366.286 290.999 365.787 290.654 365.432C290.318 365.068 289.856 364.886 289.268 364.886C288.68 364.886 288.213 365.073 287.868 365.446C287.532 365.81 287.364 366.291 287.364 366.888C287.364 367.457 287.527 367.929 287.854 368.302C288.19 368.666 288.694 368.848 289.366 368.848Z" fill="white"/>
<path d="M577.24 134.23H600.787V175.83H577.24V134.23Z" fill="#FF5F00"/>
<path d="M561.318 196.769V192.359C561.318 190.668 560.271 189.566 558.477 189.566C557.58 189.566 556.608 189.86 555.935 190.816C555.412 190.007 554.665 189.566 553.543 189.566C552.795 189.566 552.048 189.787 551.45 190.595V189.713H549.88V196.769H551.45V192.873C551.45 191.624 552.123 191.036 553.17 191.036C554.216 191.036 554.74 191.698 554.74 192.873V196.769H556.309V192.873C556.309 191.624 557.056 191.036 558.028 191.036C559.075 191.036 559.598 191.698 559.598 192.873V196.769H561.318ZM584.566 189.713H582.024V187.582H580.454V189.713H579.034V191.109H580.454V194.344C580.454 195.961 581.127 196.916 582.921 196.916C583.594 196.916 584.341 196.696 584.865 196.402L584.416 195.078C583.968 195.372 583.445 195.446 583.071 195.446C582.323 195.446 582.024 195.005 582.024 194.27V191.109H584.566V189.713ZM597.872 189.566C596.975 189.566 596.377 190.007 596.003 190.595V189.713H594.433V196.769H596.003V192.8C596.003 191.624 596.526 190.963 597.498 190.963C597.797 190.963 598.171 191.036 598.47 191.11L598.918 189.64C598.619 189.566 598.171 189.566 597.872 189.566V189.566ZM577.763 190.301C577.015 189.787 575.969 189.566 574.848 189.566C573.054 189.566 571.858 190.448 571.858 191.845C571.858 193.021 572.755 193.682 574.325 193.903L575.072 193.976C575.894 194.123 576.343 194.344 576.343 194.711C576.343 195.225 575.745 195.593 574.698 195.593C573.652 195.593 572.829 195.225 572.306 194.858L571.559 196.034C572.381 196.622 573.502 196.916 574.623 196.916C576.716 196.916 577.913 195.961 577.913 194.638C577.913 193.388 576.941 192.726 575.446 192.506L574.698 192.433C574.025 192.359 573.502 192.212 573.502 191.771C573.502 191.257 574.025 190.963 574.848 190.963C575.745 190.963 576.642 191.33 577.09 191.551L577.763 190.301ZM619.476 189.566C618.578 189.566 617.98 190.007 617.606 190.595V189.713H616.037V196.769H617.606V192.8C617.606 191.624 618.13 190.963 619.101 190.963C619.401 190.963 619.775 191.036 620.073 191.11L620.522 189.64C620.223 189.566 619.775 189.566 619.476 189.566ZM599.442 193.241C599.442 195.372 600.936 196.916 603.254 196.916C604.3 196.916 605.048 196.696 605.795 196.108L605.048 194.858C604.45 195.299 603.852 195.519 603.179 195.519C601.908 195.519 601.011 194.638 601.011 193.241C601.011 191.918 601.908 191.036 603.179 190.963C603.852 190.963 604.45 191.183 605.048 191.624L605.795 190.375C605.048 189.787 604.3 189.566 603.254 189.566C600.936 189.566 599.442 191.11 599.442 193.241ZM613.944 193.241V189.713H612.374V190.595C611.851 189.934 611.103 189.566 610.131 189.566C608.113 189.566 606.543 191.11 606.543 193.241C606.543 195.372 608.113 196.916 610.131 196.916C611.178 196.916 611.925 196.549 612.374 195.887V196.769H613.944V193.241ZM608.188 193.241C608.188 191.992 609.01 190.963 610.355 190.963C611.626 190.963 612.523 191.918 612.523 193.241C612.523 194.491 611.626 195.519 610.355 195.519C609.01 195.446 608.188 194.491 608.188 193.241ZM589.425 189.566C587.332 189.566 585.836 191.036 585.836 193.241C585.836 195.446 587.331 196.916 589.499 196.916C590.546 196.916 591.593 196.622 592.415 195.961L591.667 194.858C591.069 195.299 590.322 195.593 589.574 195.593C588.602 195.593 587.631 195.152 587.406 193.902H592.714V193.315C592.789 191.036 591.443 189.566 589.424 189.566H589.425ZM589.425 190.889C590.396 190.889 591.069 191.477 591.219 192.58H587.481C587.631 191.624 588.303 190.889 589.425 190.889ZM628.371 193.241V186.92H626.801V190.595C626.278 189.934 625.53 189.566 624.559 189.566C622.54 189.566 620.97 191.11 620.97 193.241C620.97 195.372 622.54 196.916 624.559 196.916C625.605 196.916 626.353 196.549 626.801 195.887V196.769H628.371V193.241ZM622.615 193.241C622.615 191.992 623.437 190.963 624.783 190.963C626.054 190.963 626.951 191.918 626.951 193.241C626.951 194.491 626.054 195.519 624.783 195.519C623.437 195.446 622.615 194.491 622.615 193.241ZM570.138 193.241V189.713H568.568V190.595C568.045 189.934 567.298 189.566 566.326 189.566C564.308 189.566 562.738 191.11 562.738 193.241C562.738 195.372 564.308 196.916 566.326 196.916C567.373 196.916 568.12 196.549 568.568 195.887V196.769H570.138V193.241ZM564.308 193.241C564.308 191.992 565.13 190.963 566.475 190.963C567.746 190.963 568.643 191.918 568.643 193.241C568.643 194.491 567.746 195.519 566.475 195.519C565.13 195.446 564.308 194.491 564.308 193.241Z" fill="white"/>
<path d="M578.734 155.03C578.734 146.578 582.771 139.081 588.975 134.23C584.416 130.702 578.66 128.57 572.381 128.57C557.504 128.57 545.469 140.403 545.469 155.03C545.469 169.656 557.504 181.49 572.38 181.49C578.659 181.49 584.415 179.358 588.975 175.83C582.771 171.053 578.734 163.482 578.734 155.03Z" fill="#EB001B"/>
<path d="M632.556 155.03C632.556 169.656 620.521 181.49 605.645 181.49C599.366 181.49 593.61 179.358 589.05 175.83C595.329 170.979 599.291 163.482 599.291 155.03C599.291 146.578 595.254 139.081 589.05 134.23C593.609 130.702 599.366 128.57 605.645 128.57C620.521 128.57 632.556 140.477 632.556 155.03H632.556Z" fill="#F79E1B"/>
<path d="M154.232 205.456C154.232 206.389 153.999 207.267 153.532 208.088C153.084 208.909 152.412 209.6 151.516 210.16C150.639 210.72 149.593 211.056 148.38 211.168V213.436H146.56V211.168C144.805 211 143.387 210.449 142.304 209.516C141.221 208.583 140.68 207.351 140.68 205.82H144.096C144.152 206.548 144.385 207.155 144.796 207.64C145.207 208.107 145.795 208.405 146.56 208.536V202.376C145.309 202.059 144.292 201.741 143.508 201.424C142.724 201.088 142.052 200.565 141.492 199.856C140.951 199.147 140.68 198.176 140.68 196.944C140.68 195.395 141.221 194.116 142.304 193.108C143.387 192.081 144.805 191.484 146.56 191.316V189.048H148.38V191.316C150.023 191.465 151.339 191.988 152.328 192.884C153.336 193.761 153.905 194.975 154.036 196.524H150.62C150.564 195.945 150.34 195.432 149.948 194.984C149.556 194.517 149.033 194.2 148.38 194.032V200.08C149.631 200.379 150.648 200.696 151.432 201.032C152.216 201.349 152.879 201.863 153.42 202.572C153.961 203.263 154.232 204.224 154.232 205.456ZM143.928 196.776C143.928 197.541 144.152 198.139 144.6 198.568C145.067 198.997 145.72 199.343 146.56 199.604V193.948C145.757 194.041 145.113 194.331 144.628 194.816C144.161 195.301 143.928 195.955 143.928 196.776ZM148.38 208.536C149.201 208.405 149.845 208.079 150.312 207.556C150.779 207.015 151.012 206.371 151.012 205.624C151.012 204.877 150.779 204.299 150.312 203.888C149.864 203.459 149.22 203.113 148.38 202.852V208.536ZM172.051 193.332H162.671V198.904C163.063 198.381 163.642 197.943 164.407 197.588C165.191 197.233 166.022 197.056 166.899 197.056C168.467 197.056 169.736 197.392 170.707 198.064C171.696 198.736 172.396 199.585 172.807 200.612C173.236 201.639 173.451 202.721 173.451 203.86C173.451 205.241 173.18 206.473 172.639 207.556C172.116 208.62 171.323 209.46 170.259 210.076C169.214 210.692 167.926 211 166.395 211C164.36 211 162.727 210.496 161.495 209.488C160.263 208.48 159.526 207.145 159.283 205.484H162.391C162.596 206.361 163.054 207.061 163.763 207.584C164.472 208.088 165.359 208.34 166.423 208.34C167.748 208.34 168.738 207.939 169.391 207.136C170.063 206.333 170.399 205.269 170.399 203.944C170.399 202.6 170.063 201.573 169.391 200.864C168.719 200.136 167.73 199.772 166.423 199.772C165.508 199.772 164.734 200.005 164.099 200.472C163.483 200.92 163.035 201.536 162.755 202.32H159.731V190.532H172.051V193.332ZM180.694 207.164L177.306 214.892H175.234L177.222 207.164H180.694ZM195.999 193.052L188.215 211H184.995L192.863 193.388H182.503V190.672H195.999V193.052ZM211.891 193.332H202.511V198.904C202.903 198.381 203.481 197.943 204.247 197.588C205.031 197.233 205.861 197.056 206.739 197.056C208.307 197.056 209.576 197.392 210.547 198.064C211.536 198.736 212.236 199.585 212.647 200.612C213.076 201.639 213.291 202.721 213.291 203.86C213.291 205.241 213.02 206.473 212.479 207.556C211.956 208.62 211.163 209.46 210.099 210.076C209.053 210.692 207.765 211 206.235 211C204.2 211 202.567 210.496 201.335 209.488C200.103 208.48 199.365 207.145 199.123 205.484H202.231C202.436 206.361 202.893 207.061 203.603 207.584C204.312 208.088 205.199 208.34 206.263 208.34C207.588 208.34 208.577 207.939 209.231 207.136C209.903 206.333 210.239 205.269 210.239 203.944C210.239 202.6 209.903 201.573 209.231 200.864C208.559 200.136 207.569 199.772 206.263 199.772C205.348 199.772 204.573 200.005 203.939 200.472C203.323 200.92 202.875 201.536 202.595 202.32H199.571V190.532H211.891V193.332ZM216.614 200.528C216.614 197.299 217.155 194.779 218.238 192.968C219.339 191.139 221.224 190.224 223.894 190.224C226.563 190.224 228.439 191.139 229.522 192.968C230.623 194.779 231.174 197.299 231.174 200.528C231.174 203.795 230.623 206.352 229.522 208.2C228.439 210.029 226.563 210.944 223.894 210.944C221.224 210.944 219.339 210.029 218.238 208.2C217.155 206.352 216.614 203.795 216.614 200.528ZM228.038 200.528C228.038 199.016 227.935 197.737 227.73 196.692C227.543 195.647 227.151 194.797 226.554 194.144C225.956 193.472 225.07 193.136 223.894 193.136C222.718 193.136 221.831 193.472 221.234 194.144C220.636 194.797 220.235 195.647 220.03 196.692C219.843 197.737 219.75 199.016 219.75 200.528C219.75 202.096 219.843 203.412 220.03 204.476C220.216 205.54 220.608 206.399 221.206 207.052C221.822 207.705 222.718 208.032 223.894 208.032C225.07 208.032 225.956 207.705 226.554 207.052C227.17 206.399 227.571 205.54 227.758 204.476C227.944 203.412 228.038 202.096 228.038 200.528ZM238.471 207.164L235.083 214.892H233.011L234.999 207.164H238.471ZM242.604 206.66C244.396 205.111 245.805 203.841 246.832 202.852C247.877 201.844 248.745 200.799 249.436 199.716C250.127 198.633 250.472 197.551 250.472 196.468C250.472 195.348 250.201 194.471 249.66 193.836C249.137 193.201 248.307 192.884 247.168 192.884C246.067 192.884 245.208 193.239 244.592 193.948C243.995 194.639 243.677 195.572 243.64 196.748H240.56C240.616 194.62 241.251 192.996 242.464 191.876C243.696 190.737 245.255 190.168 247.14 190.168C249.175 190.168 250.761 190.728 251.9 191.848C253.057 192.968 253.636 194.461 253.636 196.328C253.636 197.672 253.291 198.969 252.6 200.22C251.928 201.452 251.116 202.563 250.164 203.552C249.231 204.523 248.036 205.652 246.58 206.94L245.32 208.06H254.196V210.72H240.588V208.396L242.604 206.66ZM257 200.528C257 197.299 257.542 194.779 258.624 192.968C259.726 191.139 261.611 190.224 264.28 190.224C266.95 190.224 268.826 191.139 269.908 192.968C271.01 194.779 271.56 197.299 271.56 200.528C271.56 203.795 271.01 206.352 269.908 208.2C268.826 210.029 266.95 210.944 264.28 210.944C261.611 210.944 259.726 210.029 258.624 208.2C257.542 206.352 257 203.795 257 200.528ZM268.424 200.528C268.424 199.016 268.322 197.737 268.116 196.692C267.93 195.647 267.538 194.797 266.94 194.144C266.343 193.472 265.456 193.136 264.28 193.136C263.104 193.136 262.218 193.472 261.62 194.144C261.023 194.797 260.622 195.647 260.416 196.692C260.23 197.737 260.136 199.016 260.136 200.528C260.136 202.096 260.23 203.412 260.416 204.476C260.603 205.54 260.995 206.399 261.592 207.052C262.208 207.705 263.104 208.032 264.28 208.032C265.456 208.032 266.343 207.705 266.94 207.052C267.556 206.399 267.958 205.54 268.144 204.476C268.331 203.412 268.424 202.096 268.424 200.528Z" fill="white"/>
<path opacity="0.54" d="M139.518 148.114C139.518 147.162 139.737 146.308 140.176 145.552C140.624 144.796 141.226 144.208 141.982 143.788C142.747 143.359 143.583 143.144 144.488 143.144C145.524 143.144 146.443 143.401 147.246 143.914C148.058 144.418 148.646 145.137 149.01 146.07H147.092C146.84 145.557 146.49 145.174 146.042 144.922C145.594 144.67 145.076 144.544 144.488 144.544C143.844 144.544 143.27 144.689 142.766 144.978C142.262 145.267 141.865 145.683 141.576 146.224C141.296 146.765 141.156 147.395 141.156 148.114C141.156 148.833 141.296 149.463 141.576 150.004C141.865 150.545 142.262 150.965 142.766 151.264C143.27 151.553 143.844 151.698 144.488 151.698C145.076 151.698 145.594 151.572 146.042 151.32C146.49 151.068 146.84 150.685 147.092 150.172H149.01C148.646 151.105 148.058 151.824 147.246 152.328C146.443 152.832 145.524 153.084 144.488 153.084C143.573 153.084 142.738 152.874 141.982 152.454C141.226 152.025 140.624 151.432 140.176 150.676C139.737 149.92 139.518 149.066 139.518 148.114ZM157.864 145.286V153H156.268V152.09C156.016 152.407 155.685 152.659 155.274 152.846C154.873 153.023 154.443 153.112 153.986 153.112C153.379 153.112 152.833 152.986 152.348 152.734C151.872 152.482 151.494 152.109 151.214 151.614C150.943 151.119 150.808 150.522 150.808 149.822V145.286H152.39V149.584C152.39 150.275 152.563 150.807 152.908 151.18C153.253 151.544 153.725 151.726 154.322 151.726C154.919 151.726 155.391 151.544 155.736 151.18C156.091 150.807 156.268 150.275 156.268 149.584V145.286H157.864ZM161.566 146.406C161.799 146.014 162.107 145.711 162.49 145.496C162.882 145.272 163.344 145.16 163.876 145.16V146.812H163.47C162.845 146.812 162.369 146.971 162.042 147.288C161.725 147.605 161.566 148.156 161.566 148.94V153H159.97V145.286H161.566V146.406ZM166.939 146.406C167.172 146.014 167.48 145.711 167.863 145.496C168.255 145.272 168.717 145.16 169.249 145.16V146.812H168.843C168.218 146.812 167.742 146.971 167.415 147.288C167.098 147.605 166.939 148.156 166.939 148.94V153H165.343V145.286H166.939V146.406ZM177.786 148.954C177.786 149.243 177.767 149.505 177.73 149.738H171.836C171.883 150.354 172.111 150.849 172.522 151.222C172.933 151.595 173.437 151.782 174.034 151.782C174.893 151.782 175.499 151.423 175.854 150.704H177.576C177.343 151.413 176.918 151.997 176.302 152.454C175.695 152.902 174.939 153.126 174.034 153.126C173.297 153.126 172.634 152.963 172.046 152.636C171.467 152.3 171.01 151.833 170.674 151.236C170.347 150.629 170.184 149.929 170.184 149.136C170.184 148.343 170.343 147.647 170.66 147.05C170.987 146.443 171.439 145.977 172.018 145.65C172.606 145.323 173.278 145.16 174.034 145.16C174.762 145.16 175.411 145.319 175.98 145.636C176.549 145.953 176.993 146.401 177.31 146.98C177.627 147.549 177.786 148.207 177.786 148.954ZM176.12 148.45C176.111 147.862 175.901 147.391 175.49 147.036C175.079 146.681 174.571 146.504 173.964 146.504C173.413 146.504 172.942 146.681 172.55 147.036C172.158 147.381 171.925 147.853 171.85 148.45H176.12ZM183.249 145.16C183.855 145.16 184.397 145.286 184.873 145.538C185.358 145.79 185.736 146.163 186.007 146.658C186.277 147.153 186.413 147.75 186.413 148.45V153H184.831V148.688C184.831 147.997 184.658 147.47 184.313 147.106C183.967 146.733 183.496 146.546 182.899 146.546C182.301 146.546 181.825 146.733 181.471 147.106C181.125 147.47 180.953 147.997 180.953 148.688V153H179.357V145.286H180.953V146.168C181.214 145.851 181.545 145.603 181.947 145.426C182.357 145.249 182.791 145.16 183.249 145.16ZM190.31 146.588V150.858C190.31 151.147 190.376 151.357 190.506 151.488C190.646 151.609 190.88 151.67 191.206 151.67H192.186V153H190.926C190.208 153 189.657 152.832 189.274 152.496C188.892 152.16 188.7 151.614 188.7 150.858V146.588H187.79V145.286H188.7V143.368H190.31V145.286H192.186V146.588H190.31ZM202.502 148.002C203.025 148.095 203.468 148.371 203.832 148.828C204.196 149.285 204.378 149.803 204.378 150.382C204.378 150.877 204.247 151.325 203.986 151.726C203.734 152.118 203.365 152.431 202.88 152.664C202.395 152.888 201.83 153 201.186 153H197.294V143.27H201.004C201.667 143.27 202.236 143.382 202.712 143.606C203.188 143.83 203.547 144.133 203.79 144.516C204.033 144.889 204.154 145.309 204.154 145.776C204.154 146.336 204.005 146.803 203.706 147.176C203.407 147.549 203.006 147.825 202.502 148.002ZM198.89 147.358H200.864C201.387 147.358 201.793 147.241 202.082 147.008C202.381 146.765 202.53 146.42 202.53 145.972C202.53 145.533 202.381 145.193 202.082 144.95C201.793 144.698 201.387 144.572 200.864 144.572H198.89V147.358ZM201.046 151.698C201.587 151.698 202.012 151.567 202.32 151.306C202.628 151.045 202.782 150.681 202.782 150.214C202.782 149.738 202.619 149.36 202.292 149.08C201.965 148.8 201.531 148.66 200.99 148.66H198.89V151.698H201.046ZM205.581 149.108C205.581 148.333 205.739 147.647 206.057 147.05C206.383 146.453 206.822 145.991 207.373 145.664C207.933 145.328 208.549 145.16 209.221 145.16C209.827 145.16 210.355 145.281 210.803 145.524C211.26 145.757 211.624 146.051 211.895 146.406V145.286H213.505V153H211.895V151.852C211.624 152.216 211.255 152.519 210.789 152.762C210.322 153.005 209.79 153.126 209.193 153.126C208.53 153.126 207.923 152.958 207.373 152.622C206.822 152.277 206.383 151.801 206.057 151.194C205.739 150.578 205.581 149.883 205.581 149.108ZM211.895 149.136C211.895 148.604 211.783 148.142 211.559 147.75C211.344 147.358 211.059 147.059 210.705 146.854C210.35 146.649 209.967 146.546 209.557 146.546C209.146 146.546 208.763 146.649 208.409 146.854C208.054 147.05 207.765 147.344 207.541 147.736C207.326 148.119 207.219 148.576 207.219 149.108C207.219 149.64 207.326 150.107 207.541 150.508C207.765 150.909 208.054 151.217 208.409 151.432C208.773 151.637 209.155 151.74 209.557 151.74C209.967 151.74 210.35 151.637 210.705 151.432C211.059 151.227 211.344 150.928 211.559 150.536C211.783 150.135 211.895 149.668 211.895 149.136ZM217.197 142.64V153H215.601V142.64H217.197ZM218.76 149.108C218.76 148.333 218.919 147.647 219.236 147.05C219.563 146.453 220.002 145.991 220.552 145.664C221.112 145.328 221.728 145.16 222.4 145.16C223.007 145.16 223.534 145.281 223.982 145.524C224.44 145.757 224.804 146.051 225.074 146.406V145.286H226.684V153H225.074V151.852C224.804 152.216 224.435 152.519 223.968 152.762C223.502 153.005 222.97 153.126 222.372 153.126C221.71 153.126 221.103 152.958 220.552 152.622C220.002 152.277 219.563 151.801 219.236 151.194C218.919 150.578 218.76 149.883 218.76 149.108ZM225.074 149.136C225.074 148.604 224.962 148.142 224.738 147.75C224.524 147.358 224.239 147.059 223.884 146.854C223.53 146.649 223.147 146.546 222.736 146.546C222.326 146.546 221.943 146.649 221.588 146.854C221.234 147.05 220.944 147.344 220.72 147.736C220.506 148.119 220.398 148.576 220.398 149.108C220.398 149.64 220.506 150.107 220.72 150.508C220.944 150.909 221.234 151.217 221.588 151.432C221.952 151.637 222.335 151.74 222.736 151.74C223.147 151.74 223.53 151.637 223.884 151.432C224.239 151.227 224.524 150.928 224.738 150.536C224.962 150.135 225.074 149.668 225.074 149.136ZM232.672 145.16C233.279 145.16 233.82 145.286 234.296 145.538C234.782 145.79 235.16 146.163 235.43 146.658C235.701 147.153 235.836 147.75 235.836 148.45V153H234.254V148.688C234.254 147.997 234.082 147.47 233.736 147.106C233.391 146.733 232.92 146.546 232.322 146.546C231.725 146.546 231.249 146.733 230.894 147.106C230.549 147.47 230.376 147.997 230.376 148.688V153H228.78V145.286H230.376V146.168C230.638 145.851 230.969 145.603 231.37 145.426C231.781 145.249 232.215 145.16 232.672 145.16ZM237.34 149.136C237.34 148.343 237.499 147.647 237.816 147.05C238.143 146.443 238.591 145.977 239.16 145.65C239.73 145.323 240.383 145.16 241.12 145.16C242.054 145.16 242.824 145.384 243.43 145.832C244.046 146.271 244.462 146.901 244.676 147.722H242.954C242.814 147.339 242.59 147.041 242.282 146.826C241.974 146.611 241.587 146.504 241.12 146.504C240.467 146.504 239.944 146.737 239.552 147.204C239.17 147.661 238.978 148.305 238.978 149.136C238.978 149.967 239.17 150.615 239.552 151.082C239.944 151.549 240.467 151.782 241.12 151.782C242.044 151.782 242.656 151.376 242.954 150.564H244.676C244.452 151.348 244.032 151.973 243.416 152.44C242.8 152.897 242.035 153.126 241.12 153.126C240.383 153.126 239.73 152.963 239.16 152.636C238.591 152.3 238.143 151.833 237.816 151.236C237.499 150.629 237.34 149.929 237.34 149.136ZM253.337 148.954C253.337 149.243 253.318 149.505 253.281 149.738H247.387C247.433 150.354 247.662 150.849 248.073 151.222C248.483 151.595 248.987 151.782 249.585 151.782C250.443 151.782 251.05 151.423 251.405 150.704H253.127C252.893 151.413 252.469 151.997 251.853 152.454C251.246 152.902 250.49 153.126 249.585 153.126C248.847 153.126 248.185 152.963 247.597 152.636C247.018 152.3 246.561 151.833 246.225 151.236C245.898 150.629 245.735 149.929 245.735 149.136C245.735 148.343 245.893 147.647 246.211 147.05C246.537 146.443 246.99 145.977 247.569 145.65C248.157 145.323 248.829 145.16 249.585 145.16C250.313 145.16 250.961 145.319 251.531 145.636C252.1 145.953 252.543 146.401 252.861 146.98C253.178 147.549 253.337 148.207 253.337 148.954ZM251.671 148.45C251.661 147.862 251.451 147.391 251.041 147.036C250.63 146.681 250.121 146.504 249.515 146.504C248.964 146.504 248.493 146.681 248.101 147.036C247.709 147.381 247.475 147.853 247.401 148.45H251.671Z" fill="white"/>
<g filter="url(#filter1_f_82_3235)">
<rect x="530" y="262" width="214" height="266" rx="30" fill="url(#paint2_linear_82_3235)"/>
</g>
<rect x="521" y="238" width="214" height="266" rx="30" fill="url(#paint3_linear_82_3235)"/>
<mask id="mask1_82_3235" style="mask-type:alpha" maskUnits="userSpaceOnUse" x="520" y="237" width="215" height="268">
<rect x="520.991" y="237.619" width="213.538" height="266.425" rx="30" fill="#ED713C"/>
</mask>
<g mask="url(#mask1_82_3235)">
<path opacity="0.1" d="M628.168 517.076C628.168 597.214 562.01 662.696 479.756 662.696C397.502 662.696 331.344 597.214 331.344 517.076C331.344 436.938 397.502 371.456 479.756 371.456C562.01 371.456 628.168 436.938 628.168 517.076Z" fill="black" stroke="black" stroke-width="36"/>
<path opacity="0.1" d="M938.902 199.248C938.902 301.49 869.679 378.895 790.49 378.895C711.302 378.895 642.078 301.49 642.078 199.248C642.078 97.0065 711.302 19.6015 790.49 19.6015C869.679 19.6015 938.902 97.0065 938.902 199.248Z" fill="black" stroke="black" stroke-width="36"/>
</g>
<path d="M676.606 450.886C676.606 449.617 676.819 448.627 677.244 447.916C677.677 447.197 678.418 446.838 679.466 446.838C680.515 446.838 681.252 447.197 681.677 447.916C682.11 448.627 682.326 449.617 682.326 450.886C682.326 452.169 682.11 453.174 681.677 453.9C681.252 454.619 680.515 454.978 679.466 454.978C678.418 454.978 677.677 454.619 677.244 453.9C676.819 453.174 676.606 452.169 676.606 450.886ZM681.094 450.886C681.094 450.292 681.054 449.79 680.973 449.379C680.9 448.968 680.746 448.635 680.511 448.378C680.277 448.114 679.928 447.982 679.466 447.982C679.004 447.982 678.656 448.114 678.421 448.378C678.187 448.635 678.029 448.968 677.948 449.379C677.875 449.79 677.838 450.292 677.838 450.886C677.838 451.502 677.875 452.019 677.948 452.437C678.022 452.855 678.176 453.192 678.41 453.449C678.652 453.706 679.004 453.834 679.466 453.834C679.928 453.834 680.277 453.706 680.511 453.449C680.753 453.192 680.911 452.855 680.984 452.437C681.058 452.019 681.094 451.502 681.094 450.886ZM685.215 452.822C685.288 453.189 685.446 453.467 685.688 453.658C685.93 453.849 686.256 453.944 686.667 453.944C687.188 453.944 687.569 453.739 687.811 453.328C688.053 452.917 688.174 452.217 688.174 451.227C687.998 451.476 687.749 451.671 687.426 451.81C687.111 451.942 686.766 452.008 686.392 452.008C685.915 452.008 685.483 451.913 685.094 451.722C684.705 451.524 684.397 451.234 684.17 450.853C683.95 450.464 683.84 449.995 683.84 449.445C683.84 448.638 684.075 447.997 684.544 447.52C685.021 447.036 685.673 446.794 686.502 446.794C687.499 446.794 688.207 447.128 688.625 447.795C689.05 448.455 689.263 449.471 689.263 450.842C689.263 451.788 689.182 452.562 689.021 453.163C688.867 453.764 688.596 454.219 688.207 454.527C687.818 454.835 687.279 454.989 686.59 454.989C685.805 454.989 685.2 454.784 684.775 454.373C684.35 453.962 684.111 453.445 684.06 452.822H685.215ZM686.612 450.952C687.052 450.952 687.397 450.816 687.646 450.545C687.903 450.266 688.031 449.9 688.031 449.445C688.031 448.939 687.895 448.547 687.624 448.268C687.36 447.982 686.997 447.839 686.535 447.839C686.073 447.839 685.706 447.986 685.435 448.279C685.171 448.565 685.039 448.943 685.039 449.412C685.039 449.859 685.167 450.23 685.424 450.523C685.688 450.809 686.084 450.952 686.612 450.952ZM694.871 444.616L691.879 456.925H690.647L693.628 444.616H694.871ZM696.979 453.295C697.683 452.686 698.237 452.188 698.64 451.799C699.051 451.403 699.392 450.992 699.663 450.567C699.934 450.142 700.07 449.716 700.07 449.291C700.07 448.851 699.964 448.506 699.751 448.257C699.546 448.008 699.219 447.883 698.772 447.883C698.339 447.883 698.002 448.022 697.76 448.301C697.525 448.572 697.401 448.939 697.386 449.401H696.176C696.198 448.565 696.447 447.927 696.924 447.487C697.408 447.04 698.02 446.816 698.761 446.816C699.56 446.816 700.184 447.036 700.631 447.476C701.086 447.916 701.313 448.503 701.313 449.236C701.313 449.764 701.177 450.274 700.906 450.765C700.642 451.249 700.323 451.685 699.949 452.074C699.582 452.455 699.113 452.899 698.541 453.405L698.046 453.845H701.533V454.89H696.187V453.977L696.979 453.295ZM707.805 448.059H704.12V450.248C704.274 450.043 704.501 449.87 704.802 449.731C705.11 449.592 705.436 449.522 705.781 449.522C706.397 449.522 706.895 449.654 707.277 449.918C707.665 450.182 707.94 450.516 708.102 450.919C708.27 451.322 708.355 451.748 708.355 452.195C708.355 452.738 708.248 453.222 708.036 453.647C707.83 454.065 707.519 454.395 707.101 454.637C706.69 454.879 706.184 455 705.583 455C704.783 455 704.142 454.802 703.658 454.406C703.174 454.01 702.884 453.486 702.789 452.833H704.01C704.09 453.178 704.27 453.453 704.549 453.658C704.827 453.856 705.176 453.955 705.594 453.955C706.114 453.955 706.503 453.797 706.76 453.482C707.024 453.167 707.156 452.749 707.156 452.228C707.156 451.7 707.024 451.297 706.76 451.018C706.496 450.732 706.107 450.589 705.594 450.589C705.234 450.589 704.93 450.681 704.681 450.864C704.439 451.04 704.263 451.282 704.153 451.59H702.965V446.959H707.805V448.059Z" fill="white"/>
<path d="M617.585 390.875V389.523H620.289V399H618.794V390.875H617.585ZM623.144 396.985C623.976 396.266 624.63 395.676 625.107 395.217C625.592 394.749 625.995 394.264 626.316 393.761C626.637 393.258 626.797 392.756 626.797 392.253C626.797 391.733 626.671 391.326 626.42 391.031C626.177 390.736 625.792 390.589 625.263 390.589C624.752 390.589 624.353 390.754 624.067 391.083C623.79 391.404 623.642 391.837 623.625 392.383H622.195C622.221 391.395 622.516 390.641 623.079 390.121C623.651 389.592 624.375 389.328 625.25 389.328C626.195 389.328 626.931 389.588 627.46 390.108C627.997 390.628 628.266 391.321 628.266 392.188C628.266 392.812 628.106 393.414 627.785 393.995C627.473 394.567 627.096 395.083 626.654 395.542C626.221 395.993 625.666 396.517 624.99 397.115L624.405 397.635H628.526V398.87H622.208V397.791L623.144 396.985ZM631.427 394.047C630.526 393.596 630.075 392.886 630.075 391.915C630.075 391.447 630.192 391.018 630.426 390.628C630.66 390.238 631.011 389.93 631.479 389.705C631.947 389.471 632.519 389.354 633.195 389.354C633.862 389.354 634.43 389.471 634.898 389.705C635.375 389.93 635.73 390.238 635.964 390.628C636.198 391.018 636.315 391.447 636.315 391.915C636.315 392.4 636.189 392.829 635.938 393.202C635.695 393.566 635.37 393.848 634.963 394.047C635.457 394.229 635.847 394.528 636.133 394.944C636.419 395.351 636.562 395.832 636.562 396.387C636.562 396.95 636.419 397.449 636.133 397.882C635.847 398.315 635.448 398.649 634.937 398.883C634.426 399.117 633.845 399.234 633.195 399.234C632.545 399.234 631.964 399.117 631.453 398.883C630.95 398.649 630.556 398.315 630.27 397.882C629.984 397.449 629.841 396.95 629.841 396.387C629.841 395.824 629.984 395.338 630.27 394.931C630.556 394.524 630.942 394.229 631.427 394.047ZM634.898 392.097C634.898 391.612 634.746 391.239 634.443 390.979C634.14 390.719 633.724 390.589 633.195 390.589C632.675 390.589 632.263 390.719 631.96 390.979C631.657 391.239 631.505 391.616 631.505 392.11C631.505 392.543 631.661 392.899 631.973 393.176C632.294 393.445 632.701 393.579 633.195 393.579C633.689 393.579 634.096 393.44 634.417 393.163C634.738 392.886 634.898 392.53 634.898 392.097ZM633.195 394.697C632.623 394.697 632.155 394.84 631.791 395.126C631.436 395.403 631.258 395.806 631.258 396.335C631.258 396.829 631.431 397.232 631.778 397.544C632.125 397.847 632.597 397.999 633.195 397.999C633.784 397.999 634.248 397.843 634.586 397.531C634.933 397.219 635.106 396.82 635.106 396.335C635.106 395.815 634.928 395.412 634.573 395.126C634.226 394.84 633.767 394.697 633.195 394.697ZM639.964 396.426C640.051 396.859 640.237 397.189 640.523 397.414C640.809 397.639 641.195 397.752 641.68 397.752C642.295 397.752 642.746 397.509 643.032 397.024C643.318 396.539 643.461 395.711 643.461 394.541C643.253 394.836 642.958 395.065 642.577 395.23C642.204 395.386 641.797 395.464 641.355 395.464C640.792 395.464 640.28 395.351 639.821 395.126C639.362 394.892 638.998 394.55 638.729 394.099C638.469 393.64 638.339 393.085 638.339 392.435C638.339 391.482 638.616 390.723 639.171 390.16C639.734 389.588 640.506 389.302 641.485 389.302C642.664 389.302 643.5 389.696 643.994 390.485C644.497 391.265 644.748 392.465 644.748 394.086C644.748 395.204 644.653 396.118 644.462 396.829C644.28 397.54 643.959 398.077 643.5 398.441C643.041 398.805 642.404 398.987 641.589 398.987C640.662 398.987 639.947 398.744 639.444 398.259C638.941 397.774 638.66 397.163 638.599 396.426H639.964ZM641.615 394.216C642.135 394.216 642.542 394.056 642.837 393.735C643.14 393.406 643.292 392.972 643.292 392.435C643.292 391.837 643.132 391.373 642.811 391.044C642.499 390.706 642.07 390.537 641.524 390.537C640.978 390.537 640.545 390.71 640.224 391.057C639.912 391.395 639.756 391.841 639.756 392.396C639.756 392.925 639.908 393.362 640.211 393.709C640.523 394.047 640.991 394.216 641.615 394.216Z" fill="white"/>
<circle cx="593" cy="400" r="3" fill="white"/>
<circle cx="564" cy="400" r="3" fill="white"/>
<circle cx="578" cy="400" r="3" fill="white"/>
<circle cx="549" cy="400" r="3" fill="white"/>
<rect x="546.026" y="435.99" width="48.5982" height="31.8552" rx="5" fill="url(#paint4_radial_82_3235)"/>
<path fill-rule="evenodd" clip-rule="evenodd" d="M570.325 436.307L564.926 444.632C564.926 444.632 567.086 451.916 564.926 458.16L570.325 467.525L575.725 458.16C575.725 458.16 573.565 452.957 575.725 444.632C575.725 444.632 570.325 436.307 570.325 436.307Z" stroke="#C7C7B6" stroke-width="1.3" stroke-linejoin="bevel"/>
<path d="M546.026 445.014H564.926" stroke="#C7C7B6" stroke-width="1.3" stroke-linejoin="bevel"/>
<path d="M575.185 445.014H594.624" stroke="#C7C7B6" stroke-width="1.3" stroke-linejoin="bevel"/>
<path d="M546.026 457.756H564.926" stroke="#C7C7B6" stroke-width="1.3" stroke-linejoin="bevel"/>
<path d="M575.185 457.756H594.624" stroke="#C7C7B6" stroke-width="1.3" stroke-linejoin="bevel"/>
<path opacity="0.5" d="M546.444 367.812C546.444 366.996 546.632 366.264 547.008 365.616C547.392 364.968 547.908 364.464 548.556 364.104C549.212 363.736 549.928 363.552 550.704 363.552C551.592 363.552 552.38 363.772 553.068 364.212C553.764 364.644 554.268 365.26 554.58 366.06H552.936C552.72 365.62 552.42 365.292 552.036 365.076C551.652 364.86 551.208 364.752 550.704 364.752C550.152 364.752 549.66 364.876 549.228 365.124C548.796 365.372 548.456 365.728 548.208 366.192C547.968 366.656 547.848 367.196 547.848 367.812C547.848 368.428 547.968 368.968 548.208 369.432C548.456 369.896 548.796 370.256 549.228 370.512C549.66 370.76 550.152 370.884 550.704 370.884C551.208 370.884 551.652 370.776 552.036 370.56C552.42 370.344 552.72 370.016 552.936 369.576H554.58C554.268 370.376 553.764 370.992 553.068 371.424C552.38 371.856 551.592 372.072 550.704 372.072C549.92 372.072 549.204 371.892 548.556 371.532C547.908 371.164 547.392 370.656 547.008 370.008C546.632 369.36 546.444 368.628 546.444 367.812ZM557.549 366.348C557.749 366.012 558.013 365.752 558.341 365.568C558.677 365.376 559.073 365.28 559.529 365.28V366.696H559.181C558.645 366.696 558.237 366.832 557.957 367.104C557.685 367.376 557.549 367.848 557.549 368.52V372H556.181V365.388H557.549V366.348ZM566.847 368.532C566.847 368.78 566.831 369.004 566.799 369.204H561.747C561.787 369.732 561.983 370.156 562.335 370.476C562.687 370.796 563.119 370.956 563.631 370.956C564.367 370.956 564.887 370.648 565.191 370.032H566.667C566.467 370.64 566.103 371.14 565.575 371.532C565.055 371.916 564.407 372.108 563.631 372.108C562.999 372.108 562.431 371.968 561.927 371.688C561.431 371.4 561.039 371 560.751 370.488C560.471 369.968 560.331 369.368 560.331 368.688C560.331 368.008 560.467 367.412 560.739 366.9C561.019 366.38 561.407 365.98 561.903 365.7C562.407 365.42 562.983 365.28 563.631 365.28C564.255 365.28 564.811 365.416 565.299 365.688C565.787 365.96 566.167 366.344 566.439 366.84C566.711 367.328 566.847 367.892 566.847 368.532ZM565.419 368.1C565.411 367.596 565.231 367.192 564.879 366.888C564.527 366.584 564.091 366.432 563.571 366.432C563.099 366.432 562.695 366.584 562.359 366.888C562.023 367.184 561.823 367.588 561.759 368.1H565.419ZM567.737 368.664C567.737 368 567.873 367.412 568.145 366.9C568.425 366.388 568.801 365.992 569.273 365.712C569.753 365.424 570.285 365.28 570.869 365.28C571.301 365.28 571.725 365.376 572.141 365.568C572.565 365.752 572.901 366 573.149 366.312V363.12H574.529V372H573.149V371.004C572.925 371.324 572.613 371.588 572.213 371.796C571.821 372.004 571.369 372.108 570.857 372.108C570.281 372.108 569.753 371.964 569.273 371.676C568.801 371.38 568.425 370.972 568.145 370.452C567.873 369.924 567.737 369.328 567.737 368.664ZM573.149 368.688C573.149 368.232 573.053 367.836 572.861 367.5C572.677 367.164 572.433 366.908 572.129 366.732C571.825 366.556 571.497 366.468 571.145 366.468C570.793 366.468 570.465 366.556 570.161 366.732C569.857 366.9 569.609 367.152 569.417 367.488C569.233 367.816 569.141 368.208 569.141 368.664C569.141 369.12 569.233 369.52 569.417 369.864C569.609 370.208 569.857 370.472 570.161 370.656C570.473 370.832 570.801 370.92 571.145 370.92C571.497 370.92 571.825 370.832 572.129 370.656C572.433 370.48 572.677 370.224 572.861 369.888C573.053 369.544 573.149 369.144 573.149 368.688ZM577.022 364.512C576.774 364.512 576.566 364.428 576.398 364.26C576.23 364.092 576.146 363.884 576.146 363.636C576.146 363.388 576.23 363.18 576.398 363.012C576.566 362.844 576.774 362.76 577.022 362.76C577.262 362.76 577.466 362.844 577.634 363.012C577.802 363.18 577.886 363.388 577.886 363.636C577.886 363.884 577.802 364.092 577.634 364.26C577.466 364.428 577.262 364.512 577.022 364.512ZM577.694 365.388V372H576.326V365.388H577.694ZM581.086 366.504V370.164C581.086 370.412 581.142 370.592 581.254 370.704C581.374 370.808 581.574 370.86 581.854 370.86H582.694V372H581.614C580.998 372 580.526 371.856 580.198 371.568C579.87 371.28 579.706 370.812 579.706 370.164V366.504H578.926V365.388H579.706V363.744H581.086V365.388H582.694V366.504H581.086ZM586.616 367.812C586.616 366.996 586.804 366.264 587.18 365.616C587.564 364.968 588.08 364.464 588.728 364.104C589.384 363.736 590.1 363.552 590.876 363.552C591.764 363.552 592.552 363.772 593.24 364.212C593.936 364.644 594.44 365.26 594.752 366.06H593.108C592.892 365.62 592.592 365.292 592.208 365.076C591.824 364.86 591.38 364.752 590.876 364.752C590.324 364.752 589.832 364.876 589.4 365.124C588.968 365.372 588.628 365.728 588.38 366.192C588.14 366.656 588.02 367.196 588.02 367.812C588.02 368.428 588.14 368.968 588.38 369.432C588.628 369.896 588.968 370.256 589.4 370.512C589.832 370.76 590.324 370.884 590.876 370.884C591.38 370.884 591.824 370.776 592.208 370.56C592.592 370.344 592.892 370.016 593.108 369.576H594.752C594.44 370.376 593.936 370.992 593.24 371.424C592.552 371.856 591.764 372.072 590.876 372.072C590.092 372.072 589.376 371.892 588.728 371.532C588.08 371.164 587.564 370.656 587.18 370.008C586.804 369.36 586.616 368.628 586.616 367.812ZM595.897 368.664C595.897 368 596.033 367.412 596.305 366.9C596.585 366.388 596.961 365.992 597.433 365.712C597.913 365.424 598.441 365.28 599.017 365.28C599.537 365.28 599.989 365.384 600.373 365.592C600.765 365.792 601.077 366.044 601.309 366.348V365.388H602.689V372H601.309V371.016C601.077 371.328 600.761 371.588 600.361 371.796C599.961 372.004 599.505 372.108 598.993 372.108C598.425 372.108 597.905 371.964 597.433 371.676C596.961 371.38 596.585 370.972 596.305 370.452C596.033 369.924 595.897 369.328 595.897 368.664ZM601.309 368.688C601.309 368.232 601.213 367.836 601.021 367.5C600.837 367.164 600.593 366.908 600.289 366.732C599.985 366.556 599.657 366.468 599.305 366.468C598.953 366.468 598.625 366.556 598.321 366.732C598.017 366.9 597.769 367.152 597.577 367.488C597.393 367.816 597.301 368.208 597.301 368.664C597.301 369.12 597.393 369.52 597.577 369.864C597.769 370.208 598.017 370.472 598.321 370.656C598.633 370.832 598.961 370.92 599.305 370.92C599.657 370.92 599.985 370.832 600.289 370.656C600.593 370.48 600.837 370.224 601.021 369.888C601.213 369.544 601.309 369.144 601.309 368.688ZM605.854 366.348C606.054 366.012 606.318 365.752 606.646 365.568C606.982 365.376 607.378 365.28 607.834 365.28V366.696H607.486C606.95 366.696 606.542 366.832 606.262 367.104C605.99 367.376 605.854 367.848 605.854 368.52V372H604.486V365.388H605.854V366.348ZM608.635 368.664C608.635 368 608.771 367.412 609.043 366.9C609.323 366.388 609.699 365.992 610.171 365.712C610.651 365.424 611.183 365.28 611.767 365.28C612.199 365.28 612.623 365.376 613.039 365.568C613.463 365.752 613.799 366 614.047 366.312V363.12H615.427V372H614.047V371.004C613.823 371.324 613.511 371.588 613.111 371.796C612.719 372.004 612.267 372.108 611.755 372.108C611.179 372.108 610.651 371.964 610.171 371.676C609.699 371.38 609.323 370.972 609.043 370.452C608.771 369.924 608.635 369.328 608.635 368.664ZM614.047 368.688C614.047 368.232 613.951 367.836 613.759 367.5C613.575 367.164 613.331 366.908 613.027 366.732C612.723 366.556 612.395 366.468 612.043 366.468C611.691 366.468 611.363 366.556 611.059 366.732C610.755 366.9 610.507 367.152 610.315 367.488C610.131 367.816 610.039 368.208 610.039 368.664C610.039 369.12 610.131 369.52 610.315 369.864C610.507 370.208 610.755 370.472 611.059 370.656C611.371 370.832 611.699 370.92 612.043 370.92C612.395 370.92 612.723 370.832 613.027 370.656C613.331 370.48 613.575 370.224 613.759 369.888C613.951 369.544 614.047 369.144 614.047 368.688Z" fill="white"/>
<path d="M570.202 270.885H588.121V302.541H570.202V270.885Z" fill="#B27BFF"/>
<path d="M571.34 286.713C571.34 280.281 574.412 274.576 579.133 270.885C575.663 268.2 571.283 266.579 566.505 266.579C555.185 266.579 546.026 275.583 546.026 286.713C546.026 297.843 555.185 306.848 566.505 306.848C571.283 306.848 575.663 305.226 579.133 302.541C574.412 298.906 571.34 293.145 571.34 286.713Z" fill="#9E59FF"/>
<path d="M612.296 286.713C612.296 297.843 603.138 306.848 591.818 306.848C587.039 306.848 582.659 305.226 579.19 302.541C583.968 298.85 586.983 293.145 586.983 286.713C586.983 280.281 583.911 274.577 579.19 270.885C582.659 268.201 587.039 266.579 591.818 266.579C603.138 266.579 612.296 275.639 612.296 286.713H612.296Z" fill="#9E59FF"/>
<defs>
<filter id="filter0_f_82_3235" x="0" y="0" width="790" height="530" filterUnits="userSpaceOnUse" color-interpolation-filters="sRGB">
<feFlood flood-opacity="0" result="BackgroundImageFix"/>
<feBlend mode="normal" in="SourceGraphic" in2="BackgroundImageFix" result="shape"/>
<feGaussianBlur stdDeviation="45" result="effect1_foregroundBlur_82_3235"/>
</filter>
<filter id="filter1_f_82_3235" x="440" y="172" width="394" height="446" filterUnits="userSpaceOnUse" color-interpolation-filters="sRGB">
<feFlood flood-opacity="0" result="BackgroundImageFix"/>
<feBlend mode="normal" in="SourceGraphic" in2="BackgroundImageFix" result="shape"/>
<feGaussianBlur stdDeviation="45" result="effect1_foregroundBlur_82_3235"/>
</filter>
<linearGradient id="paint0_linear_82_3235" x1="397.103" y1="31.9737" x2="409.647" y2="483.83" gradientUnits="userSpaceOnUse">
<stop stop-color="#423EE0"/>
<stop offset="1" stop-color="#812DE2"/>
</linearGradient>
<linearGradient id="paint1_linear_82_3235" x1="388.103" y1="22.9737" x2="400.647" y2="474.83" gradientUnits="userSpaceOnUse">
<stop stop-color="#9C2CF3"/>
<stop offset="1" stop-color="#3A49F9"/>
</linearGradient>
<linearGradient id="paint2_linear_82_3235" x1="637.738" y1="217.9" x2="658.331" y2="560.337" gradientUnits="userSpaceOnUse">
<stop stop-color="#423EE0"/>
<stop offset="1" stop-color="#812DE2"/>
</linearGradient>
<linearGradient id="paint3_linear_82_3235" x1="628.738" y1="193.9" x2="649.331" y2="536.337" gradientUnits="userSpaceOnUse">
<stop stop-color="#9C2CF3"/>
<stop offset="1" stop-color="#3A49F9"/>
</linearGradient>
<radialGradient id="paint4_radial_82_3235" cx="0" cy="0" r="1" gradientUnits="userSpaceOnUse" gradientTransform="translate(573.934 447.594) rotate(141.774) scale(32.7287 32.3564)">
<stop stop-color="white"/>
<stop offset="1" stop-color="#DDDCDA"/>
</radialGradient>
</defs>
</svg>
